<?xml version="1.0" encoding="UTF-8"?>
<svg version="1.1" xmlns="http://www.w3.org/2000/svg" width="1338" height="1795">
<path d="M0 0 C1.5631897 0.00785522 1.5631897 0.00785522 3.15795898 0.01586914 C4.28266602 0.0190918 5.40737305 0.02231445 6.56616211 0.02563477 C7.75016602 0.03401367 8.93416992 0.04239258 10.15405273 0.05102539 C11.34192383 0.05553711 12.52979492 0.06004883 13.75366211 0.06469727 C16.69967741 0.07652865 19.6455824 0.09385016 22.59155273 0.11352539 C21.98591163 13.56962899 20.97830288 26.95330104 19.73388672 40.36425781 C19.5462355 42.41626668 19.35890794 44.46830517 19.171875 46.52037048 C18.66901623 52.02763721 18.16169772 57.5344846 17.65350604 63.04126143 C17.121019 68.81985265 16.5927335 74.59882801 16.0639801 80.37776184 C15.06467599 91.29260087 14.06165716 102.20709512 13.05726439 113.12146693 C11.69840343 127.89010752 10.34536029 142.65928106 8.99197102 157.42842388 C6.8632171 180.65722617 4.72675913 203.88531323 2.59155273 227.11352539 C68.26155273 227.11352539 133.93155273 227.11352539 201.59155273 227.11352539 C201.67207586 339.46496663 201.67207586 339.46496663 201.69415283 374.23587036 C201.69494217 375.47594555 201.6957315 376.71602074 201.69654476 377.99367396 C201.72305404 419.75366444 201.74405509 461.51365569 201.76092529 503.27365112 C201.7614831 504.65072557 201.7620409 506.02780002 201.76259871 507.40487447 C201.77429115 536.31432057 201.78515783 565.22376694 201.79507145 594.13321371 C201.80005277 608.65684387 201.80519265 623.18047397 201.8104825 637.70410403 C201.8112795 639.89484651 201.81207197 642.08558899 201.81286426 644.27633148 C201.82509442 677.98370447 201.84071118 711.69107169 201.86621094 745.3984375 C201.86675853 746.12237376 201.86730613 746.84631001 201.86787032 747.59218373 C201.87671906 759.26309608 201.88585378 770.9340082 201.8950265 782.6049203 C201.92146417 816.24847752 201.94576354 849.89203027 201.95611191 883.53559685 C201.95632605 884.22844644 201.95654019 884.92129603 201.95676082 885.63514106 C201.96142546 900.85024062 201.96500414 916.06534024 201.96755667 931.2804403 C201.96860305 937.40384738 201.96980555 943.52725443 201.97106171 949.65066147 C201.97119542 950.32081322 201.97132912 950.99096498 201.97146688 951.68142436 C201.97597716 973.88669527 201.99438429 996.09193079 202.01888087 1018.29718776 C202.04248511 1039.96252581 202.05141084 1061.6278311 202.04555824 1083.29318155 C202.04252538 1096.15105578 202.05054208 1109.00880972 202.07474291 1121.86666213 C202.08983336 1130.47564387 202.09014404 1139.08454758 202.07887999 1147.69353488 C202.0728886 1152.58605689 202.07290072 1157.47835277 202.09108546 1162.37084974 C202.34552096 1235.1682777 181.35159036 1302.75666111 135.59155273 1360.11352539 C134.38692383 1361.63913086 134.38692383 1361.63913086 133.15795898 1363.19555664 C128.3895314 1369.13696641 123.32690862 1374.76090655 118.14624023 1380.34008789 C116.07904033 1382.58429574 114.07120194 1384.85538398 112.09155273 1387.17602539 C105.80274285 1394.41494325 98.8899451 1401.16822927 91.59545898 1407.38696289 C89.33921888 1409.33093585 87.15791381 1411.34676057 84.96655273 1413.36352539 C58.42598507 1437.24600889 27.89360038 1455.989383 -3.48046875 1472.73217773 C-12.39665983 1477.51351985 -21.11014034 1482.57722771 -29.79125977 1487.76977539 C-35.91642197 1491.4313917 -42.09713299 1494.99398609 -48.28344727 1498.55102539 C-56.67399562 1503.37893009 -65.05118438 1508.2282187 -73.40844727 1513.11352539 C-82.81829319 1518.61307826 -92.25315358 1524.06801774 -101.69750977 1529.50805664 C-108.94796216 1533.68701667 -116.18332996 1537.89093045 -123.40844727 1542.11352539 C-131.72596519 1546.97455499 -140.0605038 1551.80493643 -148.40844727 1556.61352539 C-160.76867244 1563.73438947 -173.09312053 1570.91535917 -185.40844727 1578.11352539 C-198.81603444 1585.95010522 -212.24004006 1593.75631147 -225.69702148 1601.5078125 C-232.94766713 1605.68680133 -240.18317312 1609.89083879 -247.40844727 1614.11352539 C-256.81835057 1619.61298075 -266.25315289 1625.06801735 -275.69750977 1630.50805664 C-282.94796216 1634.68701667 -290.18332996 1638.89093045 -297.40844727 1643.11352539 C-305.72596519 1647.97455499 -314.0605038 1652.80493643 -322.40844727 1657.61352539 C-334.76867244 1664.73438947 -347.09312053 1671.91535917 -359.40844727 1679.11352539 C-372.81603444 1686.95010522 -386.24004006 1694.75631147 -399.69702148 1702.5078125 C-406.94767282 1706.68680461 -414.18267766 1710.89168049 -421.40844727 1715.11352539 C-423.36282242 1716.25293738 -425.31724994 1717.39225955 -427.27172852 1718.53149414 C-431.08638666 1720.75551769 -434.89638834 1722.98719986 -438.7026062 1725.22561646 C-441.08562459 1726.62504203 -443.47213053 1728.01844291 -445.859375 1729.41064453 C-447.55767892 1730.40364973 -449.2516732 1731.40401394 -450.94555664 1732.40454102 C-451.97874023 1733.00588867 -453.01192383 1733.60723633 -454.07641602 1734.22680664 C-454.98673584 1734.76088135 -455.89705566 1735.29495605 -456.83496094 1735.84521484 C-459.47748789 1737.1475512 -461.4710594 1737.89057765 -464.40844727 1738.11352539 C-466.57958984 1737.3034668 -466.57958984 1737.3034668 -468.80297852 1735.96508789 C-469.65956055 1735.46299805 -470.51614258 1734.9609082 -471.39868164 1734.44360352 C-472.3300293 1733.88092773 -473.26137695 1733.31825195 -474.22094727 1732.73852539 C-476.28753641 1731.52865092 -478.35669699 1730.3231614 -480.42797852 1729.12133789 C-481.54640137 1728.47197266 -482.66482422 1727.82260742 -483.81713867 1727.15356445 C-490.25195086 1723.4656734 -496.84428723 1720.06356774 -503.40844727 1716.61352539 C-513.57203883 1711.25806527 -523.63910336 1705.77945909 -533.60766602 1700.06665039 C-541.78401115 1695.40763286 -550.08566919 1691.0031353 -558.40844727 1686.61352539 C-568.57004608 1681.25408238 -578.63892407 1675.77956184 -588.60766602 1670.06665039 C-596.78401115 1665.40763286 -605.08566919 1661.0031353 -613.40844727 1656.61352539 C-623.57004608 1651.25408238 -633.63892407 1645.77956184 -643.60766602 1640.06665039 C-651.78402367 1635.40762572 -660.08578458 1631.00337442 -668.40844727 1626.61352539 C-678.78233138 1621.14074276 -689.07411175 1615.56130843 -699.26025391 1609.74365234 C-709.22898572 1604.05253111 -719.31309956 1598.57606634 -729.40844727 1593.11352539 C-727.59259866 1589.25374809 -725.12875834 1586.250879 -722.34594727 1583.05102539 C-721.34388857 1581.88370571 -720.34259697 1580.71572713 -719.34204102 1579.54711914 C-718.84430176 1578.96687988 -718.3465625 1578.38664062 -717.83374023 1577.78881836 C-715.8231904 1575.42561299 -713.86430084 1573.0220901 -711.90844727 1570.61352539 C-708.16056929 1566.00898959 -704.33861282 1561.47333348 -700.49438477 1556.94946289 C-697.59599904 1553.53292999 -694.73689626 1550.08847701 -691.90844727 1546.61352539 C-688.16056929 1542.00898959 -684.33861282 1537.47333348 -680.49438477 1532.94946289 C-677.59599904 1529.53292999 -674.73689626 1526.08847701 -671.90844727 1522.61352539 C-668.16056929 1518.00898959 -664.33861282 1513.47333348 -660.49438477 1508.94946289 C-657.59599904 1505.53292999 -654.73689626 1502.08847701 -651.90844727 1498.61352539 C-648.16056929 1494.00898959 -644.33861282 1489.47333348 -640.49438477 1484.94946289 C-637.59599904 1481.53292999 -634.73689626 1478.08847701 -631.90844727 1474.61352539 C-628.16056929 1470.00898959 -624.33861282 1465.47333348 -620.49438477 1460.94946289 C-617.59599904 1457.53292999 -614.73689626 1454.08847701 -611.90844727 1450.61352539 C-608.16056929 1446.00898959 -604.33861282 1441.47333348 -600.49438477 1436.94946289 C-597.59599904 1433.53292999 -594.73689626 1430.08847701 -591.90844727 1426.61352539 C-588.16056929 1422.00898959 -584.33861282 1417.47333348 -580.49438477 1412.94946289 C-577.59599904 1409.53292999 -574.73689626 1406.08847701 -571.90844727 1402.61352539 C-568.16056929 1398.00898959 -564.33861282 1393.47333348 -560.49438477 1388.94946289 C-557.59599904 1385.53292999 -554.73689626 1382.08847701 -551.90844727 1378.61352539 C-548.16056929 1374.00898959 -544.33861282 1369.47333348 -540.49438477 1364.94946289 C-537.59599904 1361.53292999 -534.73689626 1358.08847701 -531.90844727 1354.61352539 C-528.15992081 1350.00819289 -524.3376048 1345.47148095 -520.4921875 1340.94726562 C-517.61299407 1337.5539843 -514.77640489 1334.13084753 -511.97094727 1330.67602539 C-508.01401309 1325.81303115 -503.94408785 1321.05652336 -499.85229492 1316.30737305 C-496.0568136 1311.89320773 -492.35566814 1307.41019341 -488.68579102 1302.89086914 C-486.12640673 1299.76956172 -483.52250936 1296.68902509 -480.90844727 1293.61352539 C-477.53561138 1289.64448996 -474.19668081 1285.65335518 -470.90844727 1281.61352539 C-467.16056929 1277.00898959 -463.33861282 1272.47333348 -459.49438477 1267.94946289 C-456.59599904 1264.53292999 -453.73689626 1261.08847701 -450.90844727 1257.61352539 C-447.16056929 1253.00898959 -443.33861282 1248.47333348 -439.49438477 1243.94946289 C-436.59599904 1240.53292999 -433.73689626 1237.08847701 -430.90844727 1233.61352539 C-427.16056929 1229.00898959 -423.33861282 1224.47333348 -419.49438477 1219.94946289 C-416.59599904 1216.53292999 -413.73689626 1213.08847701 -410.90844727 1209.61352539 C-407.16056929 1205.00898959 -403.33861282 1200.47333348 -399.49438477 1195.94946289 C-396.59599904 1192.53292999 -393.73689626 1189.08847701 -390.90844727 1185.61352539 C-387.16056929 1181.00898959 -383.33861282 1176.47333348 -379.49438477 1171.94946289 C-376.59599904 1168.53292999 -373.73689626 1165.08847701 -370.90844727 1161.61352539 C-367.16056929 1157.00898959 -363.33861282 1152.47333348 -359.49438477 1147.94946289 C-356.59599904 1144.53292999 -353.73689626 1141.08847701 -350.90844727 1137.61352539 C-347.16056929 1133.00898959 -343.33861282 1128.47333348 -339.49438477 1123.94946289 C-336.59599904 1120.53292999 -333.73689626 1117.08847701 -330.90844727 1113.61352539 C-327.16056929 1109.00898959 -323.33861282 1104.47333348 -319.49438477 1099.94946289 C-316.59599904 1096.53292999 -313.73689626 1093.08847701 -310.90844727 1089.61352539 C-307.16056929 1085.00898959 -303.33861282 1080.47333348 -299.49438477 1075.94946289 C-296.59599904 1072.53292999 -293.73689626 1069.08847701 -290.90844727 1065.61352539 C-287.16056929 1061.00898959 -283.33861282 1056.47333348 -279.49438477 1051.94946289 C-276.59599904 1048.53292999 -273.73689626 1045.08847701 -270.90844727 1041.61352539 C-267.16056929 1037.00898959 -263.33861282 1032.47333348 -259.49438477 1027.94946289 C-256.59599904 1024.53292999 -253.73689626 1021.08847701 -250.90844727 1017.61352539 C-247.16056929 1013.00898959 -243.33861282 1008.47333348 -239.49438477 1003.94946289 C-236.59599904 1000.53292999 -233.73689626 997.08847701 -230.90844727 993.61352539 C-227.16056929 989.00898959 -223.33861282 984.47333348 -219.49438477 979.94946289 C-216.59599904 976.53292999 -213.73689626 973.08847701 -210.90844727 969.61352539 C-207.16056929 965.00898959 -203.33861282 960.47333348 -199.49438477 955.94946289 C-196.59599904 952.53292999 -193.73689626 949.08847701 -190.90844727 945.61352539 C-187.16056929 941.00898959 -183.33861282 936.47333348 -179.49438477 931.94946289 C-175.85524908 927.65975546 -172.29119683 923.31268792 -168.74047852 918.94946289 C-165.60528764 915.1368187 -162.41430968 911.37278975 -159.21313477 907.61547852 C-156.55265218 904.48803807 -153.97513268 901.32188216 -151.40844727 898.11352539 C-267.56844727 897.78352539 -383.72844727 897.45352539 -503.40844727 897.11352539 C-503.40844727 864.63580126 -503.40844727 864.63580126 -497.22094727 854.73852539 C-496.31316252 853.24075659 -495.4070202 851.74199156 -494.50219727 850.24243164 C-494.00719727 849.42661621 -493.51219727 848.61080078 -493.00219727 847.77026367 C-490.00751786 842.77821384 -487.12161109 837.72307527 -484.22094727 832.67602539 C-482.92679781 830.42986171 -481.63252535 828.18376888 -480.33813477 825.93774414 C-479.02818756 823.66303414 -477.71829148 821.3882947 -476.40844727 819.11352539 C-468.53225393 805.43773589 -460.63724443 791.77391253 -452.67553711 778.14770508 C-446.50925673 767.58732257 -440.40348777 756.99225773 -434.29956055 746.39575195 C-431.17164578 740.96692597 -428.03986279 735.54033258 -424.90844727 730.11352539 C-423.65842848 727.94686956 -422.40842848 725.78020289 -421.15844727 723.61352539 C-418.65844727 719.28019206 -416.15844727 714.94685872 -413.65844727 710.61352539 C-413.0396167 709.54086426 -412.42078613 708.46820312 -411.78320312 707.36303711 C-410.53409208 705.19795468 -409.28490597 703.03291557 -408.03564453 700.86791992 C-404.89642417 695.42736833 -401.75854164 689.98605323 -398.62329102 684.54321289 C-392.00621835 673.05903719 -385.3621075 661.59155645 -378.67553711 650.14770508 C-372.50925673 639.58732257 -366.40348777 628.99225773 -360.29956055 618.39575195 C-357.17164578 612.96692597 -354.03986279 607.54033258 -350.90844727 602.11352539 C-349.65842848 599.94686956 -348.40842848 597.78020289 -347.15844727 595.61352539 C-339.65844727 582.61352539 -332.15844727 569.61352539 -324.65844727 556.61352539 C-324.0396167 555.54086426 -323.42078613 554.46820312 -322.78320312 553.36303711 C-321.53409208 551.19795468 -320.28490597 549.03291557 -319.03564453 546.86791992 C-315.89642417 541.42736833 -312.75854164 535.98605323 -309.62329102 530.54321289 C-303.00621835 519.05903719 -296.3621075 507.59155645 -289.67553711 496.14770508 C-283.50925673 485.58732257 -277.40348777 474.99225773 -271.29956055 464.39575195 C-268.17164578 458.96692597 -265.03986279 453.54033258 -261.90844727 448.11352539 C-260.65842848 445.94686956 -259.40842848 443.78020289 -258.15844727 441.61352539 C-255.65844727 437.28019206 -253.15844727 432.94685872 -250.65844727 428.61352539 C-250.0396167 427.54086426 -249.42078613 426.46820313 -248.78320312 425.36303711 C-247.53409208 423.19795468 -246.28490597 421.03291557 -245.03564453 418.86791992 C-241.89642417 413.42736833 -238.75854164 407.98605323 -235.62329102 402.54321289 C-229.00621835 391.05903719 -222.3621075 379.59155645 -215.67553711 368.14770508 C-209.50925673 357.58732257 -203.40348777 346.99225773 -197.29956055 336.39575195 C-194.17164578 330.96692597 -191.03986279 325.54033258 -187.90844727 320.11352539 C-186.65842848 317.94686956 -185.40842848 315.78020289 -184.15844727 313.61352539 C-181.65844727 309.28019206 -179.15844727 304.94685872 -176.65844727 300.61352539 C-176.0396167 299.54086426 -175.42078613 298.46820313 -174.78320312 297.36303711 C-173.53409208 295.19795468 -172.28490597 293.03291557 -171.03564453 290.86791992 C-167.89642417 285.42736833 -164.75854164 279.98605323 -161.62329102 274.54321289 C-155.00621835 263.05903719 -148.3621075 251.59155645 -141.67553711 240.14770508 C-135.50925673 229.58732257 -129.40348777 218.99225773 -123.29956055 208.39575195 C-120.17164578 202.96692597 -117.03986279 197.54033258 -113.90844727 192.11352539 C-112.65842848 189.94686956 -111.40842848 187.78020289 -110.15844727 185.61352539 C-102.65844727 172.61352539 -95.15844727 159.61352539 -87.65844727 146.61352539 C-87.0396167 145.54086426 -86.42078613 144.46820313 -85.78320312 143.36303711 C-84.53409208 141.19795468 -83.28490597 139.03291557 -82.03564453 136.86791992 C-78.89642417 131.42736833 -75.75854164 125.98605323 -72.62329102 120.54321289 C-66.00621835 109.05903719 -59.3621075 97.59155645 -52.67553711 86.14770508 C-45.87257104 74.49693354 -39.1420254 62.80448795 -32.40844727 51.11352539 C-24.80552943 37.91319921 -17.19470076 24.71760175 -9.53344727 11.55102539 C-8.93201904 10.51510254 -8.33059082 9.47917969 -7.7109375 8.41186523 C-6.88444702 6.99381592 -6.88444702 6.99381592 -6.04125977 5.54711914 C-5.55544434 4.71237061 -5.06962891 3.87762207 -4.5690918 3.01757812 C-2.81043204 0.13247348 -2.81043204 0.13247348 0 0 Z M-4.40844727 46.11352539 C-4.96604736 47.1159729 -4.96604736 47.1159729 -5.53491211 48.13867188 C-18.1086787 70.72301659 -18.1086787 70.72301659 -24.51855469 81.52758789 C-28.26069136 87.84024017 -31.93226405 94.19256305 -35.59594727 100.55102539 C-36.55295532 102.21186157 -36.55295532 102.21186157 -37.52929688 103.90625 C-38.83734203 106.17689607 -40.14520174 108.44764897 -41.45288086 110.71850586 C-44.60176777 116.18522514 -47.75523217 121.64930185 -50.90844727 127.11352539 C-54.67210092 133.63584978 -58.43489349 140.15866303 -62.19360352 146.68383789 C-68.81067618 158.16801359 -75.45478703 169.63549433 -82.14135742 181.0793457 C-88.3076378 191.63972821 -94.41340676 202.23479305 -100.51733398 212.83129883 C-103.64524875 218.26012481 -106.77703174 223.6867182 -109.90844727 229.11352539 C-111.15846606 231.28018122 -112.40846605 233.44684789 -113.65844727 235.61352539 C-116.15844727 239.94685872 -118.65844727 244.28019206 -121.15844727 248.61352539 C-121.77727783 249.68618652 -122.3961084 250.75884766 -123.03369141 251.86401367 C-124.28280245 254.0290961 -125.53198856 256.19413521 -126.78125 258.35913086 C-129.92047036 263.79968245 -133.05835289 269.24099755 -136.19360352 274.68383789 C-142.81067618 286.16801359 -149.45478703 297.63549433 -156.14135742 309.0793457 C-162.3076378 319.63972821 -168.41340676 330.23479305 -174.51733398 340.83129883 C-177.64524875 346.26012481 -180.77703174 351.6867182 -183.90844727 357.11352539 C-185.15846606 359.28018122 -186.40846605 361.44684789 -187.65844727 363.61352539 C-190.15844727 367.94685872 -192.65844727 372.28019206 -195.15844727 376.61352539 C-195.77727783 377.68618652 -196.3961084 378.75884766 -197.03369141 379.86401367 C-198.28280245 382.0290961 -199.53198856 384.19413521 -200.78125 386.35913086 C-203.92047036 391.79968245 -207.05835289 397.24099755 -210.19360352 402.68383789 C-216.81067618 414.16801359 -223.45478703 425.63549433 -230.14135742 437.0793457 C-236.3076378 447.63972821 -242.41340676 458.23479305 -248.51733398 468.83129883 C-251.64524875 474.26012481 -254.77703174 479.6867182 -257.90844727 485.11352539 C-259.15846606 487.28018122 -260.40846605 489.44684789 -261.65844727 491.61352539 C-269.15844727 504.61352539 -276.65844727 517.61352539 -284.15844727 530.61352539 C-284.77727783 531.68618652 -285.3961084 532.75884766 -286.03369141 533.86401367 C-287.28280245 536.0290961 -288.53198856 538.19413521 -289.78125 540.35913086 C-292.92047036 545.79968245 -296.05835289 551.24099755 -299.19360352 556.68383789 C-305.81067618 568.16801359 -312.45478703 579.63549433 -319.14135742 591.0793457 C-325.3076378 601.63972821 -331.41340676 612.23479305 -337.51733398 622.83129883 C-340.64524875 628.26012481 -343.77703174 633.6867182 -346.90844727 639.11352539 C-348.15846606 641.28018122 -349.40846605 643.44684789 -350.65844727 645.61352539 C-353.15844727 649.94685872 -355.65844727 654.28019206 -358.15844727 658.61352539 C-358.77727783 659.68618652 -359.3961084 660.75884766 -360.03369141 661.86401367 C-361.28280245 664.0290961 -362.53198856 666.19413521 -363.78125 668.35913086 C-366.92047036 673.79968245 -370.05835289 679.24099755 -373.19360352 684.68383789 C-379.81067618 696.16801359 -386.45478703 707.63549433 -393.14135742 719.0793457 C-399.3076378 729.63972821 -405.41340676 740.23479305 -411.51733398 750.83129883 C-414.64524875 756.26012481 -417.77703174 761.6867182 -420.90844727 767.11352539 C-422.15846606 769.28018122 -423.40846605 771.44684789 -424.65844727 773.61352539 C-447.15844726 812.61352538 -447.15844726 812.61352538 -449.03515625 815.86645508 C-450.27949724 818.02333442 -451.5238009 820.18023531 -452.76806641 822.3371582 C-456.64157416 829.05171207 -460.51648928 835.76545152 -464.39257812 842.47851562 C-466.28513062 845.75813571 -468.17502898 849.03927414 -470.06469727 852.32055664 C-472.07231395 855.80506026 -474.08991606 859.2830076 -476.12719727 862.75024414 C-476.51141846 863.40863281 -476.89563965 864.06702148 -477.29150391 864.74536133 C-478.25198511 866.39012146 -479.21856078 868.03131881 -480.18579102 869.67211914 C-481.63234014 872.10552097 -481.63234014 872.10552097 -481.40844727 875.11352539 C-356.99844727 875.11352539 -232.58844727 875.11352539 -104.40844727 875.11352539 C-108.46989631 880.33538845 -112.48377453 885.48188105 -116.78344727 890.48852539 C-120.20111562 894.49690185 -123.58425346 898.52679251 -126.90844727 902.61352539 C-130.65632525 907.21806119 -134.47828171 911.7537173 -138.32250977 916.27758789 C-141.22089549 919.69412079 -144.07999827 923.13857377 -146.90844727 926.61352539 C-150.65697372 931.2188579 -154.47928973 935.75556983 -158.32470703 940.27978516 C-161.20390046 943.67306648 -164.04048964 947.09620325 -166.84594727 950.55102539 C-170.80288144 955.41401963 -174.87280668 960.17052742 -178.96459961 964.91967773 C-182.76008093 969.33384305 -186.46122639 973.81685737 -190.13110352 978.33618164 C-192.6904878 981.45748906 -195.29438518 984.53802569 -197.90844727 987.61352539 C-201.28128315 991.58256082 -204.62021372 995.5736956 -207.90844727 999.61352539 C-211.65632525 1004.21806119 -215.47828171 1008.7537173 -219.32250977 1013.27758789 C-222.22089549 1016.69412079 -225.07999827 1020.13857377 -227.90844727 1023.61352539 C-231.65632525 1028.21806119 -235.47828171 1032.7537173 -239.32250977 1037.27758789 C-242.22089549 1040.69412079 -245.07999827 1044.13857377 -247.90844727 1047.61352539 C-251.65632525 1052.21806119 -255.47828171 1056.7537173 -259.32250977 1061.27758789 C-262.22089549 1064.69412079 -265.07999827 1068.13857377 -267.90844727 1071.61352539 C-271.65632525 1076.21806119 -275.47828171 1080.7537173 -279.32250977 1085.27758789 C-282.22089549 1088.69412079 -285.07999827 1092.13857377 -287.90844727 1095.61352539 C-291.65632525 1100.21806119 -295.47828171 1104.7537173 -299.32250977 1109.27758789 C-302.22089549 1112.69412079 -305.07999827 1116.13857377 -307.90844727 1119.61352539 C-311.65632525 1124.21806119 -315.47828171 1128.7537173 -319.32250977 1133.27758789 C-322.22089549 1136.69412079 -325.07999827 1140.13857377 -327.90844727 1143.61352539 C-331.65632525 1148.21806119 -335.47828171 1152.7537173 -339.32250977 1157.27758789 C-342.22089549 1160.69412079 -345.07999827 1164.13857377 -347.90844727 1167.61352539 C-351.65632525 1172.21806119 -355.47828171 1176.7537173 -359.32250977 1181.27758789 C-362.22089549 1184.69412079 -365.07999827 1188.13857377 -367.90844727 1191.61352539 C-371.65632525 1196.21806119 -375.47828171 1200.7537173 -379.32250977 1205.27758789 C-382.22089549 1208.69412079 -385.07999827 1212.13857377 -387.90844727 1215.61352539 C-391.65632525 1220.21806119 -395.47828171 1224.7537173 -399.32250977 1229.27758789 C-402.22089549 1232.69412079 -405.07999827 1236.13857377 -407.90844727 1239.61352539 C-411.65632525 1244.21806119 -415.47828171 1248.7537173 -419.32250977 1253.27758789 C-422.22089549 1256.69412079 -425.07999827 1260.13857377 -427.90844727 1263.61352539 C-431.65632525 1268.21806119 -435.47828171 1272.7537173 -439.32250977 1277.27758789 C-442.22089549 1280.69412079 -445.07999827 1284.13857377 -447.90844727 1287.61352539 C-451.65632525 1292.21806119 -455.47828171 1296.7537173 -459.32250977 1301.27758789 C-462.22089549 1304.69412079 -465.07999827 1308.13857377 -467.90844727 1311.61352539 C-471.65632525 1316.21806119 -475.47828171 1320.7537173 -479.32250977 1325.27758789 C-482.22089549 1328.69412079 -485.07999827 1332.13857377 -487.90844727 1335.61352539 C-491.65632525 1340.21806119 -495.47828171 1344.7537173 -499.32250977 1349.27758789 C-502.22089549 1352.69412079 -505.07999827 1356.13857377 -507.90844727 1359.61352539 C-511.65632525 1364.21806119 -515.47828171 1368.7537173 -519.32250977 1373.27758789 C-522.22089549 1376.69412079 -525.07999827 1380.13857377 -527.90844727 1383.61352539 C-533.45036825 1390.41766325 -539.1415365 1397.09328417 -544.82446289 1403.77954102 C-550.31115241 1410.23759465 -555.74621856 1416.72850155 -561.09594727 1423.30102539 C-564.13212092 1426.99366903 -567.22694697 1430.63474327 -570.32250977 1434.27758789 C-573.22089549 1437.69412079 -576.07999827 1441.13857377 -578.90844727 1444.61352539 C-582.65632525 1449.21806119 -586.47828171 1453.7537173 -590.32250977 1458.27758789 C-593.22089549 1461.69412079 -596.07999827 1465.13857377 -598.90844727 1468.61352539 C-602.65632525 1473.21806119 -606.47828171 1477.7537173 -610.32250977 1482.27758789 C-613.22089549 1485.69412079 -616.07999827 1489.13857377 -618.90844727 1492.61352539 C-622.65632525 1497.21806119 -626.47828171 1501.7537173 -630.32250977 1506.27758789 C-633.22089549 1509.69412079 -636.07999827 1513.13857377 -638.90844727 1516.61352539 C-642.65632525 1521.21806119 -646.47828171 1525.7537173 -650.32250977 1530.27758789 C-653.22089549 1533.69412079 -656.07999827 1537.13857377 -658.90844727 1540.61352539 C-662.65632525 1545.21806119 -666.47828171 1549.7537173 -670.32250977 1554.27758789 C-673.95943247 1558.56468672 -677.5245389 1562.90620366 -681.06469727 1567.27368164 C-682.8117353 1569.39050939 -684.57782779 1571.47565831 -686.37719727 1573.54711914 C-686.88057617 1574.12977539 -687.38395508 1574.71243164 -687.90258789 1575.31274414 C-688.8849876 1576.44677234 -689.87303427 1577.57594029 -690.86743164 1578.69946289 C-693.26914585 1581.4789359 -694.69271515 1583.52380176 -695.40844727 1587.11352539 C-694.62010498 1587.53013428 -693.8317627 1587.94674316 -693.01953125 1588.37597656 C-666.54321069 1602.38539438 -666.54321069 1602.38539438 -654.03344727 1609.55102539 C-644.23952298 1615.15773683 -634.29711337 1620.45281855 -624.31671143 1625.71676636 C-614.85445249 1630.71066706 -605.49304087 1635.8400101 -596.20922852 1641.16040039 C-588.03288339 1645.81941793 -579.73122534 1650.22391548 -571.40844727 1654.61352539 C-561.24684846 1659.9729684 -551.17797046 1665.44748894 -541.20922852 1671.16040039 C-533.03288186 1675.81941879 -524.73121764 1680.22389654 -516.40844727 1684.61352539 C-506.77159715 1689.69630312 -497.19087761 1694.84819349 -487.72094727 1700.23852539 C-486.79427246 1700.76462402 -485.86759766 1701.29072266 -484.9128418 1701.83276367 C-481.69105804 1703.66475836 -478.4700307 1705.49751205 -475.2644043 1707.35766602 C-473.44396458 1708.41333222 -471.61522935 1709.45271693 -469.78344727 1710.48852539 C-468.37192383 1711.30450195 -468.37192383 1711.30450195 -466.93188477 1712.13696289 C-463.83926586 1713.33379683 -462.5760041 1712.98285579 -459.40844727 1712.11352539 C-456.9969438 1710.96603658 -456.9969438 1710.96603658 -454.58422852 1709.48071289 C-453.6515918 1708.92963867 -452.71895508 1708.37856445 -451.75805664 1707.81079102 C-450.75581055 1707.20944336 -449.75356445 1706.6080957 -448.72094727 1705.98852539 C-446.55080692 1704.70394018 -444.38021864 1703.42011144 -442.20922852 1702.13696289 C-440.52627686 1701.13874512 -440.52627686 1701.13874512 -438.80932617 1700.12036133 C-433.36687472 1696.90880706 -427.88734613 1693.76235577 -422.40844727 1690.61352539 C-414.05995527 1685.80589629 -405.72595866 1680.97455118 -397.40844727 1676.11352539 C-387.99854396 1670.61407003 -378.56374164 1665.15903343 -369.11938477 1659.71899414 C-361.86893237 1655.54003411 -354.63356457 1651.33612033 -347.40844727 1647.11352539 C-339.09092934 1642.25249579 -330.75639073 1637.42211436 -322.40844727 1632.61352539 C-310.04822209 1625.49266131 -297.723774 1618.31169161 -285.40844727 1611.11352539 C-272.00086009 1603.27694556 -258.57685447 1595.47073931 -245.11987305 1587.71923828 C-237.86922741 1583.54024945 -230.63372141 1579.33621199 -223.40844727 1575.11352539 C-213.99854396 1569.61407003 -204.56374164 1564.15903343 -195.11938477 1558.71899414 C-187.86893237 1554.54003411 -180.63356457 1550.33612033 -173.40844727 1546.11352539 C-165.09092934 1541.25249579 -156.75639073 1536.42211436 -148.40844727 1531.61352539 C-136.04822209 1524.49266131 -123.723774 1517.31169161 -111.40844727 1510.11352539 C-98.00086009 1502.27694556 -84.57685447 1494.47073931 -71.11987305 1486.71923828 C-63.86922415 1482.54024758 -56.63400281 1478.33573404 -49.40844727 1474.11352539 C-46.4369231 1472.37925506 -43.46505595 1470.64557505 -40.49291992 1468.91235352 C-38.37507242 1467.6772498 -36.25757814 1466.44154025 -34.14038086 1465.20532227 C-23.3509148 1458.91212326 -12.5845839 1452.63243021 -1.47094727 1446.92602539 C19.23454161 1436.24544589 38.35391713 1422.55065764 56.59155273 1408.11352539 C57.52354492 1407.37618164 58.45553711 1406.63883789 59.41577148 1405.87915039 C65.38566618 1401.07598262 71.06631886 1396.01973233 76.67749023 1390.80883789 C79.350878 1388.33613339 82.05692107 1385.90726158 84.77905273 1383.48852539 C91.44104019 1377.49914244 97.78365594 1371.24575559 103.60717773 1364.43383789 C105.12108003 1362.66364505 106.65631977 1360.91167757 108.20092773 1359.16821289 C154.17098141 1307.01077966 180.8222335 1240.82523011 180.71853638 1171.17893982 C180.7196924 1169.47766256 180.72128368 1167.77638556 180.72326791 1166.07510906 C180.72743581 1161.40921696 180.72538639 1156.74334542 180.72228372 1152.07745326 C180.71999685 1147.00198208 180.72348013 1141.92651422 180.72618866 1136.8510437 C180.73061077 1126.79989016 180.72956381 1116.74874399 180.72671942 1106.69759016 C180.724492 1098.35433713 180.7244616 1090.01108652 180.72587204 1081.66783333 C180.72607428 1080.46440955 180.72627652 1079.26098577 180.72648489 1078.02109461 C180.72690561 1075.56745489 180.72733028 1073.11381517 180.72775881 1070.66017545 C180.73168562 1046.51618609 180.72857061 1022.37220017 180.72262135 998.22821162 C180.72178044 994.81555254 180.7209479 991.40289346 180.72012329 987.99023438 C180.71995904 987.31254121 180.7197948 986.63484805 180.71962557 985.93661873 C180.71619573 971.60190767 180.71501589 957.26719671 180.71412936 942.9324853 C180.70973089 872.74549842 180.68921588 802.55851362 179.94750977 384.75585938 C179.94481058 383.66106477 179.9421114 382.56627017 179.93933043 381.43829997 C179.83047673 337.3300224 179.70994145 293.22177925 179.59155273 249.11352539 C113.26155273 249.11352539 46.93155273 249.11352539 -21.40844727 249.11352539 C-19.92344727 235.25352539 -19.92344727 235.25352539 -18.40844727 221.11352539 C-17.81955787 215.0589855 -17.24056893 209.0050188 -16.69091797 202.94702148 C-16.54286579 201.33350576 -16.39463544 199.72000638 -16.24624634 198.10652161 C-15.85382929 193.83304235 -15.46415148 189.55931819 -15.07532907 185.28551054 C-14.83108221 182.60239996 -14.58618981 179.91934905 -14.34108543 177.23631668 C-13.48295577 167.84272528 -12.62707586 158.44893222 -11.7734375 149.05493164 C-10.9816955 140.34274571 -10.18487978 131.63103354 -9.38578922 122.91951883 C-8.69460982 115.38199812 -8.00692066 107.84416423 -7.32193059 100.30607855 C-6.91494476 95.82796607 -6.50659134 91.34998919 -6.09469032 86.8723259 C-5.70898417 82.67811623 -5.32764573 78.48353156 -4.94958878 74.28862572 C-4.81086893 72.7575043 -4.67063103 71.22651949 -4.52870369 69.69569206 C-3.79997424 61.82564976 -3.18171982 54.02471949 -3.40844727 46.11352539 C-3.73844727 46.11352539 -4.06844727 46.11352539 -4.40844727 46.11352539 Z " fill="#FFFFFF" transform="translate(1135.408447265625,-0.113525390625)"/>
<path d="M0 0 C-0.4683666 1.58924691 -0.93897199 3.17783414 -1.4105072 4.7661438 C-1.6723326 5.65085924 -1.934158 6.53557468 -2.2039175 7.44709969 C-3.26146233 10.83846493 -4.55486136 14.03196614 -5.94140625 17.3046875 C-6.22075012 17.96892731 -6.50009399 18.63316711 -6.78790283 19.3175354 C-7.39175677 20.75238498 -7.99780496 22.18631278 -8.60586548 23.61938477 C-10.29554784 27.60342799 -11.96683881 31.59519626 -13.640625 35.5859375 C-13.9950618 36.42989075 -14.3494986 37.27384399 -14.7146759 38.14337158 C-18.80878405 47.90373184 -22.81235851 57.7008426 -26.8125 67.5 C-27.57150875 69.35816428 -28.33054211 71.21631852 -29.08959961 73.07446289 C-30.62450269 76.8324868 -32.15884543 80.59073894 -33.69287109 84.34912109 C-37.49864298 93.67226603 -41.31204281 102.992292 -45.125 112.3125 C-45.49853607 113.22566986 -45.87207214 114.13883972 -46.25692749 115.0796814 C-53.50289886 132.79342742 -60.76499949 150.50053209 -68.03222656 168.20556641 C-70.0193842 173.04699378 -72.00587988 177.88869258 -73.9921875 182.73046875 C-74.48779175 183.93854187 -74.48779175 183.93854187 -74.9934082 185.17102051 C-75.99561617 187.61400928 -76.99781075 190.05700355 -78 192.5 C-85.34836666 210.41281807 -85.34836666 210.41281807 -88.94866943 219.18417358 C-96.30993827 237.11836419 -103.66200302 255.05627364 -111 273 C-118.66392822 291.74073145 -126.3439716 310.4748035 -134.03222656 329.20556641 C-136.0193842 334.04699378 -138.00587988 338.88869258 -139.9921875 343.73046875 C-140.32259033 344.53585083 -140.65299316 345.34123291 -140.9934082 346.17102051 C-141.99561617 348.61400928 -142.99781075 351.05700355 -144 353.5 C-151.34836666 371.41281807 -151.34836666 371.41281807 -154.94866943 380.18417358 C-162.30993827 398.11836419 -169.66200302 416.05627364 -177 434 C-184.66392822 452.74073145 -192.3439716 471.4748035 -200.03222656 490.20556641 C-202.0193842 495.04699378 -204.00587988 499.88869258 -205.9921875 504.73046875 C-206.32259033 505.53585083 -206.65299316 506.34123291 -206.9934082 507.17102051 C-207.99561617 509.61400928 -208.99781075 512.05700355 -210 514.5 C-217.34836666 532.41281807 -217.34836666 532.41281807 -220.94866943 541.18417358 C-228.30993827 559.11836419 -235.66200302 577.05627364 -243 595 C-250.66392822 613.74073145 -258.3439716 632.4748035 -266.03222656 651.20556641 C-269.02176135 658.48914336 -272.00980563 665.77333183 -274.99798584 673.0574646 C-276.66526507 677.1216672 -278.33263716 681.1858317 -280 685.25 C-280.66666711 686.87499982 -281.33333378 688.49999982 -282 690.125 C-283.33333333 693.375 -284.66666667 696.625 -286 699.875 C-286.33001007 700.67940018 -286.66002014 701.48380035 -287.00003052 702.31257629 C-287.66659367 703.93732271 -288.33315861 705.5620684 -288.99972534 707.18681335 C-290.66799039 711.25318712 -292.33622425 715.31957368 -294.00439453 719.38598633 C-296.98525517 726.65219163 -299.96631077 733.91831653 -302.94857788 741.1839447 C-304.59087429 745.1850659 -306.23294544 749.18627954 -307.875 753.1875 C-308.19978333 753.97883331 -308.52456665 754.77016663 -308.85919189 755.58547974 C-312.79852016 765.18434939 -316.73150993 774.78578077 -320.65625 784.390625 C-321.05006866 785.35418411 -321.44388733 786.31774323 -321.84963989 787.3105011 C-323.74568461 791.94966167 -325.64097359 796.58912758 -327.53466797 801.22924805 C-332.96239186 814.51269014 -338.4805387 827.75329288 -344 841 C-241.37 841 -138.74 841 -33 841 C-37.09207931 850.35332413 -41.12047842 859.50508417 -45.75 868.5625 C-49.60482177 876.19112206 -53.39720544 883.84099325 -57.0625 891.5625 C-62.03767238 902.03269421 -67.10487453 912.45669155 -72.1875 922.875 C-73.84514414 926.27339261 -75.50270096 929.67182778 -77.16015625 933.0703125 C-77.77488045 934.33070595 -77.77488045 934.33070595 -78.40202332 935.61656189 C-82.32160516 943.65526917 -86.2256757 951.70145103 -90.125 959.75 C-91.43096103 962.44532633 -92.73695371 965.14063733 -94.04296875 967.8359375 C-94.52759079 968.83611908 -94.52759079 968.83611908 -95.02200317 969.85650635 C-98.82219512 977.69841938 -102.62966965 985.53679387 -106.4375 993.375 C-106.9663681 994.46367371 -106.9663681 994.46367371 -107.50592041 995.57434082 C-109.29017331 999.24718532 -111.07450774 1002.91999019 -112.85888672 1006.59277344 C-116.05257981 1013.1664508 -119.24551499 1019.74049629 -122.43850708 1026.31451416 C-124.20897365 1029.9596912 -125.97948931 1033.60484439 -127.75 1037.25 C-128.45833357 1038.70833322 -129.1666669 1040.16666655 -129.875 1041.625 C-149 1081 -149 1081 -168.125 1120.375 C-168.65092995 1121.45779739 -168.65092995 1121.45779739 -169.18748474 1122.56246948 C-169.895868 1124.020905 -170.60425219 1125.47934006 -171.31263733 1126.93777466 C-173.08271457 1130.58204086 -174.8527755 1134.22631498 -176.62280273 1137.87060547 C-179.81930865 1144.45181734 -183.0159339 1151.0329711 -186.21316528 1157.61383057 C-193.48098511 1172.57320396 -200.74576419 1187.53403392 -208 1202.5 C-215.61091819 1218.2018253 -223.23370674 1233.89786998 -230.85888672 1249.59277344 C-234.05257981 1256.1664508 -237.24551499 1262.74049629 -240.43850708 1269.31451416 C-242.20897365 1272.9596912 -243.97948931 1276.60484439 -245.75 1280.25 C-246.45833357 1281.70833322 -247.1666669 1283.16666655 -247.875 1284.625 C-260.625 1310.875 -273.375 1337.125 -286.125 1363.375 C-286.65092995 1364.45779739 -286.65092995 1364.45779739 -287.18748474 1365.56246948 C-287.895868 1367.020905 -288.60425219 1368.47934006 -289.31263733 1369.93777466 C-291.08271457 1373.58204086 -292.8527755 1377.22631498 -294.62280273 1380.87060547 C-297.81930865 1387.45181734 -301.0159339 1394.0329711 -304.21316528 1400.61383057 C-311.48098511 1415.57320396 -318.74576419 1430.53403392 -326 1445.5 C-331.47437522 1456.79399649 -336.95344847 1468.08569873 -342.4375 1479.375 C-342.78956512 1480.09975525 -343.14163025 1480.8245105 -343.50436401 1481.57122803 C-346.36032567 1487.45033754 -349.21659468 1493.32929773 -352.07287598 1499.20825195 C-352.42684448 1499.93681396 -352.78081299 1500.66537598 -353.14550781 1501.41601562 C-353.49926483 1502.14411438 -353.85302185 1502.87221313 -354.21749878 1503.62237549 C-354.93208205 1505.0933022 -355.64653918 1506.5642902 -356.36087036 1508.03533936 C-358.12676816 1511.67166588 -359.89452415 1515.3070626 -361.66650391 1518.94042969 C-364.9356652 1525.64942794 -368.18365717 1532.36647569 -371.36256409 1539.11880493 C-372.82170097 1542.2160199 -374.29088209 1545.30842168 -375.76071167 1548.40057373 C-376.4569676 1549.87308481 -377.14807091 1551.34804425 -377.83377075 1552.82550049 C-378.77887601 1554.86127754 -379.74091998 1556.88818993 -380.70703125 1558.9140625 C-381.2481958 1560.0685791 -381.78936035 1561.2230957 -382.34692383 1562.41259766 C-384 1565 -384 1565 -385.97583008 1565.86547852 C-389.27987679 1566.08505755 -392.56448336 1566.26694243 -395.875 1566.3125 C-396.91720703 1566.35600586 -396.91720703 1566.35600586 -397.98046875 1566.40039062 C-403.17299893 1566.46395267 -406.00426381 1565.24803107 -410 1562 C-412.8422138 1558.58934344 -413.46077869 1555.72103276 -413.29443359 1551.29272461 C-412.97872574 1548.83433947 -412.3624451 1546.63218828 -411.6640625 1544.25390625 C-409.30311227 1535.00626942 -408.49965828 1525.51718609 -407.41192627 1516.05316162 C-404.7268524 1492.89246002 -401.39862043 1469.88036003 -397.625 1446.875 C-397.50754929 1446.15788094 -397.39009857 1445.44076187 -397.26908875 1444.70191193 C-394.74066437 1429.27231337 -392.14771514 1413.85371561 -389.5390625 1398.4375 C-388.77488334 1393.91686143 -388.01183662 1389.39603393 -387.25 1384.875 C-387.0672049 1383.79106964 -386.88440979 1382.70713928 -386.69607544 1381.59036255 C-383.91213664 1365.03029573 -381.3879877 1348.4430806 -379.0625 1331.8125 C-378.91856812 1330.78727234 -378.77463623 1329.76204468 -378.62634277 1328.70574951 C-377.22548521 1318.67657769 -375.90375171 1308.64179405 -374.80859375 1298.57421875 C-374.72489029 1297.82259964 -374.64118683 1297.07098053 -374.5549469 1296.29658508 C-374.05569473 1291.50375753 -373.72771055 1286.81725422 -374 1282 C-376.06158187 1279.81140124 -377.58381372 1278.56565321 -380.0625 1277 C-381.07824097 1276.30946533 -381.07824097 1276.30946533 -382.11450195 1275.60498047 C-383.61338906 1274.58678651 -385.11957925 1273.57928372 -386.63183594 1272.58105469 C-388.97734558 1271.01512474 -391.27654387 1269.39843366 -393.5703125 1267.7578125 C-408.80203914 1256.90952168 -424.4745977 1246.71376983 -440.11401367 1236.46728516 C-450.29992902 1229.78961526 -460.42724324 1223.04492582 -470.42807007 1216.09262085 C-471.78061554 1215.15249028 -473.13578454 1214.21613616 -474.49145508 1213.28051758 C-490.49077769 1202.22779024 -506.1483507 1190.55986681 -521 1178 C-521.5151416 1177.5683252 -522.0302832 1177.13665039 -522.56103516 1176.69189453 C-541.2859687 1160.98693571 -558.94787213 1144.34049395 -573.67333984 1124.75927734 C-575.01446125 1122.98082301 -576.37559768 1121.21899706 -577.73828125 1119.45703125 C-585.09095914 1109.82809117 -591.21098209 1099.63210303 -597 1089 C-597.37253906 1088.31824707 -597.74507812 1087.63649414 -598.12890625 1086.93408203 C-614.56663668 1056.47727247 -622.84825053 1021.55506963 -630.53828336 988.00643372 C-630.84654352 986.66685977 -631.17315067 985.33137842 -631.51775449 984.00069029 C-633.41621107 975.93333461 -633.27530763 967.86947523 -633.24609566 959.6362896 C-633.2475765 957.97207393 -633.24993535 956.30785886 -633.25308865 954.64364552 C-633.25921437 950.06948052 -633.25288674 945.4954047 -633.24453239 940.92124636 C-633.23765468 935.94542227 -633.24240736 930.96960709 -633.24568737 925.99378121 C-633.24983324 917.27290099 -633.24655001 908.55204808 -633.23841095 899.83117104 C-633.22634209 886.86354409 -633.22573924 873.89593437 -633.22749493 860.92830283 C-633.23012305 839.11481345 -633.22345324 817.30133603 -633.21146011 795.48785019 C-633.19961257 773.88752052 -633.19190941 752.28719584 -633.18975449 730.68686295 C-633.18968566 730.01587719 -633.18961684 729.34489143 -633.18954593 728.65357277 C-633.18891952 722.52509231 -633.18834414 716.39661185 -633.18782998 710.26813138 C-633.18655124 695.03386243 -633.18463262 679.7995936 -633.18227959 664.56532478 C-633.18217295 663.87161317 -633.18206632 663.17790155 -633.18195645 662.46316837 C-633.17671424 628.72349057 -633.16409946 594.98381607 -633.15087891 561.24414062 C-633.14629556 549.53668215 -633.14174482 537.82922367 -633.1373291 526.12176514 C-633.1370552 525.3956609 -633.1367813 524.66955667 -633.13649911 523.92144927 C-633.12380938 490.16248469 -633.11635926 456.40351954 -633.11025951 422.64455319 C-633.10986338 420.45271634 -633.109465 418.26087948 -633.10906615 416.06904263 C-633.10642657 401.54354431 -633.10387728 387.01804598 -633.10138843 372.49254764 C-633.09643552 343.5907647 -633.09095215 314.68898187 -633.08510434 285.7871991 C-633.08482586 284.41084149 -633.08454775 283.03448388 -633.08427001 281.65812627 C-633.06649085 193.57308798 -633.03633621 105.48805341 -633 7 C-598.55941763 6.30038537 -564.11997718 5.76017074 -529.67448783 5.37667644 C-523.29540102 5.30520494 -516.91634123 5.2313859 -510.53727722 5.15791321 C-498.12406962 5.01522901 -485.71083702 4.8748296 -473.29759464 4.73520844 C-463.18867143 4.62148868 -453.07975703 4.50701091 -442.97084808 4.39203072 C-441.50378906 4.37534704 -440.03673004 4.35866353 -438.56967102 4.34198018 C-436.35740843 4.31682157 -434.14514584 4.29166247 -431.93288328 4.26650161 C-411.45007606 4.03355987 -390.96726007 3.80140376 -370.48442459 3.57096004 C-369.71726034 3.5623289 -368.95009609 3.55369775 -368.15968444 3.54480506 C-361.93485473 3.47477596 -355.71002477 3.40476826 -349.4851948 3.33476226 C-325.20771341 3.0617136 -300.93026187 2.78613809 -276.65283203 2.50854492 C-249.20568146 2.19471372 -221.75851046 1.88276001 -194.31130767 1.5735274 C-191.37216801 1.54040785 -188.43302841 1.50728244 -185.49388885 1.47415352 C-184.7705042 1.46600112 -184.04711954 1.45784871 -183.30181413 1.44944927 C-172.50114532 1.32769188 -161.70049316 1.20452854 -150.89984894 1.08061028 C-138.59032621 0.93938324 -126.28078215 0.80022648 -113.9712089 0.66346806 C-107.71883077 0.59395381 -101.46646506 0.52363185 -95.21412468 0.45079422 C-63.47469422 0.08179173 -31.74157972 -0.07382786 0 0 Z M-181.50631868 22.93595504 C-193.45822225 23.07529186 -205.41016954 23.21070139 -217.36211932 23.34600533 C-238.76366112 23.58839442 -260.16516631 23.83387018 -281.56665039 24.08129883 C-302.11675915 24.3188792 -322.6668869 24.5547048 -343.21704102 24.78833008 C-345.1129504 24.80988444 -345.1129504 24.80988444 -347.04716098 24.83187424 C-352.13508507 24.8897135 -357.22300923 24.94754698 -362.3109335 25.00537124 C-384.58244321 25.258529 -406.85393699 25.51308323 -429.12542787 25.76789156 C-432.65494264 25.80826601 -436.1844577 25.84861536 -439.71397281 25.8889606 C-453.22681517 26.04346584 -466.73964866 26.19871909 -480.25247192 26.3548851 C-484.28543385 26.40147573 -488.31839832 26.44783192 -492.35136604 26.49391747 C-532.23482739 26.94997728 -572.11738293 27.4761766 -612 28 C-612.10287181 117.42626799 -612.19827081 206.85254315 -612.25405884 296.27885437 C-612.25489554 297.61647581 -612.25573225 298.95409725 -612.25656897 300.29171869 C-612.27410734 328.37243969 -612.29040739 356.4531613 -612.30527807 384.53388384 C-612.31275009 398.6410159 -612.32045992 412.74814781 -612.32839465 426.85527962 C-612.32959015 428.98320773 -612.33077886 431.11113585 -612.33196728 433.23906396 C-612.3503142 465.98293335 -612.37374248 498.72678934 -612.4119873 531.47064209 C-612.4128087 532.17397336 -612.41363009 532.87730463 -612.41447637 533.60194897 C-612.42774961 544.94079854 -612.44145165 556.27964759 -612.45521064 567.61849657 C-612.49486322 600.30176051 -612.53131367 632.98501407 -612.54683876 665.66829967 C-612.54715997 666.34126373 -612.54748118 667.01422778 -612.54781213 667.70758468 C-612.55449455 681.82162332 -612.55981861 695.93566209 -612.56348994 710.04970184 C-612.56521878 716.66075595 -612.5671726 723.27180999 -612.56926346 729.882864 C-612.569668 731.18397133 -612.57007253 732.48507866 -612.57048933 733.82561349 C-612.57757038 754.74156263 -612.60537372 775.65743498 -612.6409922 796.57335285 C-612.67638538 817.618053 -612.68979045 838.66267729 -612.68100826 859.70740614 C-612.67645646 872.19937891 -612.68850634 884.69107327 -612.72478526 897.18299559 C-612.74740125 905.5442389 -612.74790068 913.90530138 -612.73099088 922.26655752 C-612.72199343 927.0201352 -612.72206467 931.77318905 -612.74929909 936.526709 C-612.85765171 956.59179988 -612.1180432 974.98652916 -606.70835026 994.44692066 C-605.73417838 997.95809055 -604.89647312 1001.49497576 -604.05078125 1005.0390625 C-594.46232339 1042.11977439 -594.46232339 1042.11977439 -579 1077 C-578.43031494 1078.04099854 -578.43031494 1078.04099854 -577.84912109 1079.10302734 C-568.22451131 1096.48779371 -556.50158842 1111.98103472 -543.12109375 1126.66015625 C-541.19213665 1128.78804815 -539.30963647 1130.94720859 -537.4375 1133.125 C-532.17403685 1139.15251425 -526.50093067 1144.70117135 -520.4296875 1149.91015625 C-518.52432997 1151.54900879 -516.63769106 1153.20338988 -514.7578125 1154.87109375 C-506.18736897 1162.44027929 -497.34463951 1169.52937047 -488.18164062 1176.3671875 C-486.06479098 1177.95150828 -483.96144904 1179.55240126 -481.859375 1181.15625 C-468.65686077 1191.14375362 -454.83709806 1200.18748873 -441.04081726 1209.32196045 C-431.63633518 1215.55588623 -422.2876522 1221.87251586 -412.9375 1228.1875 C-411.27645015 1229.30818919 -409.61539875 1230.42887609 -407.9543457 1231.54956055 C-380.5337507 1250.06209893 -380.5337507 1250.06209893 -368.5625 1258.75 C-367.49612305 1259.51763672 -367.49612305 1259.51763672 -366.40820312 1260.30078125 C-364.98765693 1261.32852002 -363.575496 1262.36796384 -362.17260742 1263.41967773 C-360.64084099 1264.53386181 -359.06503011 1265.58868475 -357.4621582 1266.59790039 C-351.39170234 1270.65494395 -351.39170234 1270.65494395 -350.3815918 1274.12353516 C-350.34266284 1276.80935292 -350.64867129 1279.28256742 -351.0625 1281.9375 C-351.18955322 1283.00572998 -351.31660645 1284.07395996 -351.44750977 1285.17456055 C-351.75193741 1287.68049689 -352.07891877 1290.18374977 -352.42285156 1292.68457031 C-353.0717089 1297.4238947 -353.59094765 1302.17547305 -354.1171875 1306.9296875 C-357.69611207 1338.5933446 -362.8823639 1369.99583614 -368.08621693 1401.42242527 C-370.52108803 1416.12755793 -372.91919215 1430.83865077 -375.3089695 1445.55117226 C-376.08721443 1450.34134102 -376.8687983 1455.13094768 -377.65323067 1459.92010689 C-380.91033388 1479.81404885 -380.91033388 1479.81404885 -383.84375 1499.7578125 C-383.96584839 1500.62630829 -384.08794678 1501.49480408 -384.21374512 1502.38961792 C-384.78211326 1506.62850925 -385.12795473 1510.71092292 -385 1515 C-382.796316 1512.21295337 -381.11280311 1509.45123199 -379.55493164 1506.26098633 C-379.09337173 1505.32092239 -378.63181183 1504.38085846 -378.15626526 1503.41230774 C-377.66254929 1502.3958165 -377.16883331 1501.37932526 -376.66015625 1500.33203125 C-375.87686195 1498.73146126 -375.87686195 1498.73146126 -375.07774353 1497.09855652 C-373.40206979 1493.67177312 -371.73231204 1490.24214285 -370.0625 1486.8125 C-368.97367173 1484.58510827 -367.88448242 1482.35789299 -366.79492188 1480.13085938 C-360.91062947 1468.09114305 -355.08128048 1456.02590113 -349.29170227 1443.94038391 C-345.05512789 1435.10092488 -340.76953412 1426.28609946 -336.46304321 1417.48052979 C-334.31575755 1413.08958477 -332.1716064 1408.69710936 -330.02734375 1404.3046875 C-329.59890671 1403.42714813 -329.17046967 1402.54960876 -328.72904968 1401.64547729 C-324.74304554 1393.47867414 -320.77431953 1385.30355772 -316.8125 1377.125 C-316.33059708 1376.13025665 -316.33059708 1376.13025665 -315.83895874 1375.11541748 C-314.54337643 1372.44103132 -313.24781246 1369.76663627 -311.9523468 1367.0921936 C-308.16141731 1359.26703466 -304.36203678 1351.44598228 -300.5625 1343.625 C-299.85074776 1342.15983118 -299.13899646 1340.69466191 -298.42724609 1339.22949219 C-295.92735951 1334.0835026 -293.42724112 1328.93762565 -290.92712402 1323.79174805 C-288.43043916 1318.65290175 -285.93387575 1313.51399647 -283.4375 1308.375 C-283.08535431 1307.65008362 -282.73320862 1306.92516724 -282.37039185 1306.17828369 C-277.24222588 1295.62113305 -272.11929979 1285.06145251 -267 1274.5 C-259.38908181 1258.7981747 -251.76629326 1243.10213002 -244.14111328 1227.40722656 C-240.94742019 1220.8335492 -237.75448501 1214.25950371 -234.56149292 1207.68548584 C-232.79102635 1204.0403088 -231.02051069 1200.39515561 -229.25 1196.75 C-228.54166643 1195.29166678 -227.8333331 1193.83333345 -227.125 1192.375 C-214.375 1166.125 -201.625 1139.875 -188.875 1113.625 C-188.34907005 1112.54220261 -188.34907005 1112.54220261 -187.81251526 1111.43753052 C-187.104132 1109.979095 -186.39574781 1108.52065994 -185.68736267 1107.06222534 C-183.91728543 1103.41795914 -182.1472245 1099.77368502 -180.37719727 1096.12939453 C-177.18069135 1089.54818266 -173.9840661 1082.9670289 -170.78683472 1076.38616943 C-163.51901489 1061.42679604 -156.25423581 1046.46596608 -149 1031.5 C-141.38908181 1015.7981747 -133.76629326 1000.10213002 -126.14111328 984.40722656 C-122.94742019 977.8335492 -119.75448501 971.25950371 -116.56149292 964.68548584 C-114.79102635 961.0403088 -113.02051069 957.39515561 -111.25 953.75 C-110.54166643 952.29166678 -109.8333331 950.83333345 -109.125 949.375 C-107.70833333 946.45833333 -106.29166667 943.54166667 -104.875 940.625 C-104.52443542 939.90324585 -104.17387085 939.1814917 -103.81268311 938.43786621 C-103.10375071 936.97830669 -102.39480701 935.51875266 -101.68585205 934.0592041 C-99.9240921 930.43217613 -98.16252331 926.80505558 -96.40136719 923.17773438 C-93.10604125 916.39111212 -89.8088233 909.60542834 -86.50512695 902.82287598 C-84.95801915 899.64634692 -83.41195517 896.46931032 -81.8659668 893.29223633 C-81.1342271 891.78921641 -80.40198556 890.28644069 -79.66918945 888.78393555 C-72.14217423 876.19109535 -72.14217423 876.19109535 -68 863 C-169.64 863 -271.28 863 -376 863 C-369.12177205 844.6580588 -369.12177205 844.6580588 -366.3984375 838.19140625 C-366.08423355 837.43789383 -365.7700296 836.68438141 -365.44630432 835.90803528 C-364.77417106 834.29642941 -364.10088136 832.68530539 -363.42648315 831.074646 C-361.55721449 826.60869162 -359.69859185 822.13830992 -357.83984375 817.66796875 C-357.44799393 816.72584534 -357.0561441 815.78372192 -356.65242004 814.81304932 C-352.03065117 803.68752564 -347.4832431 792.53175069 -342.9375 781.375 C-341.24356124 777.21872079 -339.549518 773.06248417 -337.85546875 768.90625 C-337.44331116 767.89492508 -337.03115356 766.88360016 -336.60650635 765.84162903 C-332.66813272 756.18041921 -328.71230646 746.52641519 -324.75 736.875 C-324.42699921 736.08816833 -324.10399841 735.30133667 -323.77120972 734.49066162 C-322.15959448 730.5649516 -320.54765776 726.63937369 -318.93554688 722.71386719 C-315.9566285 715.45968423 -312.98075689 708.20425114 -310.00457764 700.94894409 C-308.33385737 696.87608762 -306.6630402 692.8032709 -304.9921875 688.73046875 C-304.66179474 687.92511185 -304.33140198 687.11975494 -303.99099731 686.28999329 C-302.01154045 681.4650936 -300.03162458 676.64038256 -298.05133057 671.81582642 C-290.69006173 653.88163581 -283.33799698 635.94372636 -276 618 C-268.33607178 599.25926855 -260.6560284 580.5251965 -252.96777344 561.79443359 C-250.9806158 556.95300622 -248.99412012 552.11130742 -247.0078125 547.26953125 C-246.51220825 546.06145813 -246.51220825 546.06145813 -246.0065918 544.82897949 C-245.00438383 542.38599072 -244.00218925 539.94299645 -243 537.5 C-235.65163334 519.58718193 -235.65163334 519.58718193 -232.05133057 510.81582642 C-224.69006173 492.88163581 -217.33799698 474.94372636 -210 457 C-202.33607178 438.25926855 -194.6560284 419.5251965 -186.96777344 400.79443359 C-184.9806158 395.95300622 -182.99412012 391.11130742 -181.0078125 386.26953125 C-180.67740967 385.46414917 -180.34700684 384.65876709 -180.0065918 383.82897949 C-179.00438383 381.38599072 -178.00218925 378.94299645 -177 376.5 C-169.65163334 358.58718193 -169.65163334 358.58718193 -166.05133057 349.81582642 C-158.69006173 331.88163581 -151.33799698 313.94372636 -144 296 C-136.33607178 277.25926855 -128.6560284 258.5251965 -120.96777344 239.79443359 C-118.9806158 234.95300622 -116.99412012 230.11130742 -115.0078125 225.26953125 C-114.67740967 224.46414917 -114.34700684 223.65876709 -114.0065918 222.82897949 C-113.00438383 220.38599072 -112.00218925 217.94299645 -111 215.5 C-103.65163334 197.58718193 -103.65163334 197.58718193 -100.05133057 188.81582642 C-92.69006173 170.88163581 -85.33799698 152.94372636 -78 135 C-72.6272083 121.86182289 -67.25050002 108.72527554 -61.86221313 95.59344482 C-60.8822174 93.20508958 -59.90240689 90.81665842 -58.92260742 88.42822266 C-55.86083975 80.96559832 -52.79665869 73.50397764 -49.72735596 66.04444885 C-48.27167973 62.50615169 -46.81709408 58.96740668 -45.36260986 55.42861938 C-44.67512756 53.75682465 -43.98711891 52.08524625 -43.29852295 50.41390991 C-42.33959766 48.08638643 -41.38252195 45.75810966 -40.42578125 43.4296875 C-40.15245468 42.76764816 -39.87912811 42.10560883 -39.59751892 41.42350769 C-37.80132047 37.0456796 -36.08435998 32.64043365 -34.38859558 28.22268677 C-33.71662785 26.47289866 -33.71662785 26.47289866 -33.03108501 24.68776131 C-32.69082696 23.80080008 -32.3505689 22.91383884 -32 22 C-81.84081516 21.78640785 -131.66961258 22.35441471 -181.50631868 22.93595504 Z " fill="#FFFFFF" transform="translate(634,229)"/>
</svg>
